<?xml version="1.0" encoding="utf-8"?>
<!-- Generator: Adobe Illustrator 19.1.0, SVG Export Plug-In . SVG Version: 6.00 Build 0)  -->
<svg version="1.1" id="Layer_1" xmlns="http://www.w3.org/2000/svg" xmlns:xlink="http://www.w3.org/1999/xlink" x="0px" y="0px"
	 viewBox="0 0 315.3 212.1" style="enable-background:new 0 0 315.3 212.1;" xml:space="preserve">
<style type="text/css">
	.st0{fill:#FFFFFF;}
</style>
<g>
	<path class="st0" d="M15.1,3.4c0,0-1.4,49.4,0.6,75.4l1.1,15.4l24.5-0.6c0,0-4.3-32.5-4.3-40.8L56,93.5h8.1l9.3-43.1l4.3,43.7
		l21.3-1c0,0-5.9-84.8-5.4-92.4L62.6,1.2l-7.5,48L39,0.5L15.1,3.4z"/>
	<path class="st0" d="M108.4,1.2c0,0-0.8,19.4,0.3,45.9c1.1,26.4,4,47,4,47s46.1-2.1,56.4-1.9c0,0-1-4.7-1.7-12.4
		c-0.6-7.7-0.7-12.7-0.7-12.7c-1.9-0.6-33.9,2-33.9,2L132,54.7l29-1.7l-1.6-18.4l-29,2l-0.2-14.3l34.4-1.2l-0.2-20.3
		C164.4,0.7,135-1.2,108.4,1.2"/>
	<path class="st0" d="M177.8,0.5c0,0-2.4,71.8,2.6,93.5c17.8-1.6,51.7-1.2,56.2-1.5c0,0,0.4-6.2-0.1-13c-0.4-6-1.4-11.4-1.4-11.4
		L199,69l-0.7-15.2l24,0.3L222,35.8l-24.3-1l0.3-14.7l34.6,0.9l-0.9-19.4C231.8,1.7,202.2-1,177.8,0.5"/>
	<path class="st0" d="M240,0.3l0.5,22.3l21-0.1c0,0-3.3,28.4-2.3,71.5c0,0,11.8,0.2,23.8-0.3c-2.9-46.1,0.6-70.4,0.6-70.4l22.7,0.8
		L306.6,2c0,0-19.6-1.1-31.3-1.6C263.6,0,240,0.3,240,0.3"/>
	<path class="st0" d="M213.2,111.7c-5.6-0.9-23-0.4-38.9,0.9c-2.6,0.2-14.3,14.8-14.3,14.8s-3.8,38.9,1.1,57.2
		c8.8,15.8,19.2,26.2,19.2,26.2s13.1,0.4,17.2,0.1c4.9-0.3,19.8-0.7,19.8-0.7s0.4-28-1.2-28c-1.6,0-23.8,0.6-23.8,0.6l-9.3-10.9
		l0.3-34.7l31.8-2.8L213.2,111.7z"/>
	<path class="st0" d="M230.4,110.7c0,0-0.8,22.9-2.1,45.2c-1.3,22.3-0.3,55.8-0.3,55.8l28-0.4l-2.8-31.9l30.8,31.6l31.2-3.6
		l-52.5-49.9l43.8-45.4l-30.3-1.4l-24.1,26.6l0.6-27.1L230.4,110.7z"/>
	<path class="st0" d="M72.3,111.2c0,0,2.8,25.9,2,42.6c-0.7,16.7-3.6,39.1-3.6,39.1s-3.9,5.2-8.4,9.5c-4.5,4.4-10.5,9-10.5,9
		L23,212.1c-9.6-4.3-23-19.2-23-19.2l15.2-20.6c0,0,3.8,4.7,9.4,9.6c5.9,5.3,8.8,7.6,8.8,7.6l12.5-9.1c0,0,0.9-4.8,2.5-21.5
		c1.5-16.7-2-45.9-2-45.9L72.3,111.2z"/>
	<path class="st0" d="M144.4,160.7c-3.7-12-14.9-47.9-14.9-47.9s-1.5-0.6-14.7-0.5c-13.1,0.1-17.3,1.1-17.3,1.1S90.9,129,86.1,155
		c-4.6,24.7-9.2,57.1-9.2,57.1l23.5-0.6l5.5-36.3l19.6-1.2l7.5,35.8l26.7,0.5C159.6,210.3,148.1,172.7,144.4,160.7 M108.3,153.3
		l2.8-18.1l6.8-0.4l3.2,17.7L108.3,153.3z"/>
</g>
</svg>
