<?xml version="1.0" encoding="utf-8"?>
<!-- Generator: Adobe Illustrator 24.0.3, SVG Export Plug-In . SVG Version: 6.00 Build 0)  -->
<svg version="1.1" id="Layer_1" xmlns="http://www.w3.org/2000/svg" xmlns:xlink="http://www.w3.org/1999/xlink" x="0px" y="0px"
	 viewBox="0 0 220.95 128.42" style="enable-background:new 0 0 220.95 128.42;" xml:space="preserve">
<style type="text/css">
	.st0{fill:#FFFFFF;}
	.st1{fill:#7AB929;}
</style>
<g>
	<path class="st0" d="M5.37,15.32c0,0-0.49,17.58,0.21,26.85l0.41,5.47l8.74-0.21c0,0-1.51-11.58-1.51-14.53l6.73,14.53h2.87
		l3.3-15.35l1.53,15.56l7.59-0.35c0,0-2.12-30.18-1.91-32.92l-11.01,0.18l-2.66,17.09l-5.74-17.35L5.37,15.32z"/>
	<path class="st0" d="M38.6,14.56c0,0-0.3,6.92,0.1,16.34c0.39,9.41,1.43,16.76,1.43,16.76s16.41-0.76,20.07-0.69
		c0,0-0.37-1.69-0.59-4.41c-0.23-2.73-0.24-4.52-0.24-4.52c-0.67-0.23-12.09,0.71-12.09,0.71L47,33.6l10.34-0.62l-0.58-6.57
		l-10.32,0.72l-0.09-5.09L58.6,21.6l-0.07-7.22C58.54,14.38,48.06,13.69,38.6,14.56"/>
	<path class="st0" d="M63.33,14.28c0,0-0.84,25.55,0.93,33.29c6.35-0.57,18.43-0.43,20.01-0.54c0,0,0.15-2.22-0.02-4.64
		c-0.15-2.13-0.49-4.04-0.49-4.04L70.86,38.7l-0.25-5.41l8.55,0.11l-0.08-6.52l-8.65-0.36l0.11-5.22l12.34,0.33l-0.32-6.91
		C82.56,14.72,72.02,13.78,63.33,14.28"/>
	<path class="st0" d="M85.48,14.23l0.19,7.94l7.5-0.04c0,0-1.16,10.11-0.84,25.45c0,0,4.21,0.08,8.48-0.1
		c-1.03-16.41,0.22-25.06,0.22-25.06l8.07,0.29l0.1-7.86c0,0-6.97-0.4-11.16-0.56C93.86,14.13,85.48,14.23,85.48,14.23"/>
	<path class="st0" d="M75.92,53.9c-2-0.3-8.2-0.13-13.86,0.31c-0.94,0.07-5.08,5.26-5.08,5.26s-1.37,13.86,0.39,20.36
		c3.12,5.63,6.83,9.32,6.83,9.32s4.66,0.14,6.13,0.05c1.76-0.11,7.05-0.27,7.05-0.27s0.15-9.97-0.41-9.97
		c-0.57,0-8.47,0.22-8.47,0.22l-3.32-3.9l0.1-12.35l11.32-1.01L75.92,53.9z"/>
	<path class="st0" d="M82.06,53.54c0,0-0.28,8.16-0.73,16.1c-0.45,7.95-0.09,19.86-0.09,19.86l9.96-0.15l-0.98-11.37l10.96,11.25
		l11.11-1.28l-18.7-17.77l15.6-16.18l-10.78-0.5l-8.59,9.47l0.21-9.65L82.06,53.54z"/>
	<path class="st0" d="M25.75,53.72c0,0,0.98,9.21,0.72,15.16c-0.26,5.95-1.29,13.93-1.29,13.93s-1.38,1.84-2.98,3.4
		c-1.6,1.56-3.76,3.22-3.76,3.22L8.18,89.64C4.75,88.1,0,82.8,0,82.8l5.41-7.33c0,0,1.36,1.66,3.33,3.42
		c2.11,1.88,3.14,2.7,3.14,2.7l4.47-3.25c0,0,0.34-1.7,0.88-7.66c0.54-5.96-0.7-16.33-0.7-16.33L25.75,53.72z"/>
	<path class="st0" d="M51.44,71.34c-1.32-4.26-5.3-17.06-5.3-17.06s-0.55-0.22-5.23-0.18c-4.68,0.04-6.14,0.39-6.14,0.39
		s-2.38,5.57-4.12,14.81c-1.65,8.78-3.29,20.34-3.29,20.34l8.36-0.21l1.95-12.94l6.98-0.41l2.68,12.76l9.5,0.18
		C56.83,89.03,52.75,75.61,51.44,71.34 M38.57,68.73l1.01-6.45l2.41-0.13l1.12,6.31L38.57,68.73z"/>
	<path class="st1" d="M201.14,33.8c0,0-32.72-24.27-34.29-24.74c-1.57-0.47-22.45-1.18-22.45-1.18l-4.04,2.81L137.89,0l-4.68,5.15
		l2.58,8.71l-8,5.55l-13.4,47.37l12.22,40.74l35.16,20.9c0,0,24.89-1.64,28.69-2.16c3.8-0.52,27.05-22.7,27.05-22.7l3.43-32.91
		L201.14,33.8z"/>
	<polygon class="st0" points="119.64,64.84 119.03,72.29 124.93,70.66 121.12,65.34 	"/>
	<polygon class="st0" points="134.18,65.66 134.77,68.41 141.06,64.2 135.48,60.41 	"/>
	<polygon class="st0" points="150.7,62.42 147.96,55.15 143.04,61.16 	"/>
	<polygon class="st0" points="156.62,73.54 155.33,66.51 151.86,72.76 	"/>
	<polygon class="st0" points="163.15,35.26 162.87,37.21 170.64,38.38 168.01,30.4 	"/>
	<polygon class="st0" points="144.51,72.66 150.8,68.45 145.23,64.66 143.93,69.91 	"/>
	<polygon class="st0" points="141.64,77.19 138.59,71.78 133.97,75.93 	"/>
	<polygon class="st0" points="161.1,51.62 157.85,47.4 153.43,50.36 	"/>
	<polygon class="st0" points="134.11,88.54 128.04,86.63 126.8,86.95 131.68,92.33 	"/>
	<polygon class="st0" points="155.97,54.9 154.67,60.15 155.26,62.89 161.55,58.69 	"/>
	<polygon class="st0" points="148.17,73.56 143.25,79.57 150.92,80.83 	"/>
	<polygon class="st0" points="157.61,84.93 154.14,91.18 158.9,91.96 	"/>
	<polygon class="st0" points="156.92,79.53 156.64,81.48 164.41,82.65 161.78,74.67 	"/>
	<polygon class="st0" points="153.09,86.88 147.51,83.09 146.21,88.34 146.8,91.08 	"/>
	<polygon class="st0" points="140.88,90.21 136.26,94.35 143.92,95.61 	"/>
	<polygon class="st0" points="133.51,80.18 127.93,76.39 126.63,81.64 127.22,84.38 	"/>
	<polygon class="st0" points="129.01,29.18 127.08,28.81 125.54,36.51 133.63,34.27 	"/>
	<polygon class="st0" points="142.03,26.56 136.45,22.77 135.15,28.02 135.74,30.76 	"/>
	<polygon class="st0" points="147.31,15.92 142.39,21.93 150.06,23.19 	"/>
	<polygon class="st0" points="156.3,28.86 152.83,35.11 157.59,35.89 	"/>
	<polygon class="st0" points="167.72,45.06 164.25,51.31 169.01,52.09 	"/>
	<polygon class="st0" points="162.2,71.71 162.73,64.59 158.09,65.87 	"/>
	<polygon class="st0" points="158.52,12.6 153.65,17.46 153.37,19.41 161.14,20.58 	"/>
	<polygon class="st0" points="144.9,32.27 145.49,35.01 151.78,30.81 146.2,27.02 	"/>
	<polygon class="st0" points="139.56,34.13 134.94,38.28 142.61,39.54 	"/>
	<polygon class="st0" points="126.99,48.06 125.74,48.39 130.63,53.77 133.05,49.98 	"/>
	<polygon class="st0" points="138.74,41.19 137.44,46.44 138.03,49.19 144.32,44.98 	"/>
	<polygon class="st0" points="144.22,41.92 151.89,43.18 149.15,35.91 	"/>
	<polygon class="st0" points="148.68,45.67 145.21,51.92 149.97,52.7 	"/>
	<polygon class="st0" points="132.12,72.04 130.83,65.01 127.36,71.26 	"/>
	<polygon class="st0" points="155.1,40.88 154.82,42.83 162.59,44 159.97,36.02 	"/>
	<polygon class="st0" points="137.77,58.42 144.06,54.21 138.48,50.42 137.19,55.67 	"/>
	<polygon class="st0" points="124.03,54.66 121.58,60.36 129.07,58.3 	"/>
	<polygon class="st0" points="127.4,42 126.85,44.75 134.29,43.39 130.68,37.7 	"/>
	<polygon class="st0" points="137.9,86.31 143.22,86.18 137.43,81.01 	"/>
	<polygon class="st0" points="167.56,95.94 165.62,95.57 164.08,103.27 172.18,101.03 	"/>
	<polygon class="st0" points="173.7,94.78 174.29,97.52 180.58,93.32 175,89.53 	"/>
	<polygon class="st0" points="185.4,84.25 180.48,90.26 188.15,91.51 	"/>
	<polygon class="st0" points="194.84,95.62 191.37,101.87 196.13,102.65 	"/>
	<polygon class="st0" points="208.03,54.36 203.16,59.21 202.88,61.17 210.65,62.34 	"/>
	<polygon class="st0" points="190.32,97.57 184.74,93.78 183.44,99.03 184.03,101.77 	"/>
	<polygon class="st0" points="156.44,109.4 162.73,105.19 157.16,101.4 155.86,106.65 	"/>
	<polygon class="st0" points="178.1,100.89 173.49,105.04 181.15,106.3 	"/>
	<polygon class="st0" points="156.69,113.11 164.36,114.37 161.19,109.71 	"/>
	<polygon class="st0" points="146.12,107.98 149.48,113.19 153.84,108.78 	"/>
	<polygon class="st0" points="197.37,76.51 192.94,79.47 200.61,80.73 	"/>
	<polygon class="st0" points="166.31,116.07 171.2,121.44 173.62,117.65 167.56,115.74 	"/>
	<polygon class="st0" points="193.77,84.19 192.47,89.45 193.05,92.19 199.34,87.98 	"/>
	<polygon class="st0" points="187.69,102.67 182.77,108.68 190.43,109.94 	"/>
	<polygon class="st0" points="193.65,107.64 193.37,109.59 201.13,110.76 198.51,102.78 	"/>
	<polygon class="st0" points="185.73,117.46 186.32,120.2 192.61,115.99 187.03,112.2 	"/>
	<polygon class="st0" points="173.02,109.29 167.45,105.5 166.15,110.75 166.73,113.5 	"/>
	<polygon class="st0" points="155.24,99.21 149.67,95.42 148.37,100.67 148.95,103.42 	"/>
	<polygon class="st0" points="168.53,58.3 166.59,57.92 165.05,65.63 173.15,63.39 	"/>
	<polygon class="st0" points="172.99,56.41 173.58,59.16 179.87,54.95 174.29,51.16 	"/>
	<polygon class="st0" points="181.45,52.61 189.12,53.87 186.37,46.6 	"/>
	<polygon class="st0" points="195.81,57.98 192.34,64.23 197.1,65.01 	"/>
	<polygon class="st0" points="207.23,74.17 203.76,80.42 208.52,81.2 	"/>
	<polygon class="st0" points="193.88,52.91 201.64,54.08 199.02,46.1 194.15,50.96 	"/>
	<polygon class="st0" points="188.07,39.76 193.04,43.89 194.49,44.01 192.74,36.84 	"/>
	<polygon class="st0" points="185,64.13 191.29,59.92 185.71,56.13 184.41,61.38 	"/>
	<polygon class="st0" points="179.6,43.95 180.18,46.7 186.47,42.49 180.9,38.7 	"/>
	<polygon class="st0" points="174.46,67.4 182.12,68.66 179.07,63.25 	"/>
	<polygon class="st0" points="174.16,47.34 175.38,39.66 169.99,42.74 	"/>
	<polygon class="st0" points="168.53,78.1 167.28,78.42 172.17,83.8 174.59,80.01 	"/>
	<polygon class="st0" points="178.26,70.31 176.96,75.56 177.54,78.3 183.83,74.1 	"/>
	<polygon class="st0" points="188.66,65.03 183.74,71.04 191.4,72.3 	"/>
	<polygon class="st0" points="188.14,74.58 184.67,80.83 189.43,81.61 	"/>
	<polygon class="st0" points="194.62,70 194.34,71.95 202.11,73.12 199.48,65.14 	"/>
	<polygon class="st0" points="178,79.54 176.7,84.79 177.29,87.53 183.58,83.33 	"/>
	<polygon class="st0" points="167.11,85.17 162.49,89.32 170.16,90.58 	"/>
	<polygon class="st0" points="174,71.64 168.42,67.86 167.12,73.11 167.71,75.85 	"/>
	<polygon class="st0" points="177.42,115.43 182.74,115.3 176.94,110.12 	"/>
	<polygon class="st0" points="132.13,95.32 130.83,100.57 131.42,103.31 137.71,99.11 	"/>
	<polygon class="st0" points="140.39,100.25 143.3,106.88 147.06,103.06 	"/>
	<polygon class="st0" points="135.4,109.96 143.07,111.21 140.02,105.81 	"/>
	<polygon class="st0" points="162.03,93.12 156.18,97.24 163.31,97.77 	"/>
	<polygon class="st0" points="153.57,113.49 150.81,119.72 156.88,119.91 155.34,115.29 	"/>
	<polygon class="st0" points="208.08,64.93 204.61,71.18 209.37,71.96 	"/>
	<polygon class="st0" points="206.22,91.59 204.93,84.56 201.46,90.81 	"/>
	<polygon class="st0" points="199.26,98.56 198.98,100.51 206.75,101.68 204.12,93.7 	"/>
	<polygon class="st0" points="217.95,75.08 215.21,67.81 210.29,73.82 	"/>
	<polygon class="st0" points="211.21,83.63 211.49,84.89 217.05,80.21 213.36,77.64 	"/>
	<polygon class="st0" points="208.48,93 209.07,95.74 215.36,91.53 209.78,87.74 	"/>
	<polygon class="st0" points="208.26,103.63 213.02,104.41 211.73,97.38 	"/>
	<polygon class="st0" points="169.01,15.61 164.59,18.58 172.26,19.84 	"/>
	<polygon class="st0" points="165.29,29.8 162.55,22.53 157.62,28.54 	"/>
	<polygon class="st0" points="175.98,35.23 182.27,31.02 176.69,27.23 175.39,32.48 	"/>
	<polygon class="st0" points="188.6,28.7 186.67,28.33 185.13,36.03 193.22,33.79 	"/>
	<polygon class="st0" points="171.99,28.24 176.38,22.6 169.41,24.16 	"/>
</g>
</svg>
