<?xml version="1.0" encoding="utf-8"?>
<!-- Generator: Adobe Illustrator 24.0.1, SVG Export Plug-In . SVG Version: 6.00 Build 0)  -->
<svg version="1.1" id="Layer_1" xmlns="http://www.w3.org/2000/svg" xmlns:xlink="http://www.w3.org/1999/xlink" x="0px" y="0px"
	 viewBox="0 0 149.2 63.1" style="enable-background:new 0 0 149.2 63.1;" xml:space="preserve">
<style type="text/css">
	.st0{fill:#FFFFFF;}
</style>
<g>
	<g>
		<path class="st0" d="M56,19.9l-0.1,8.3c-0.4-0.1-0.8-0.1-1.2-0.1l-1.1,0c-0.1-1.4-0.1-2.7-0.1-3.9c0-1.2,0-1.9,0-2.2
			c0-2.5,0-4.8-0.1-6.9c-0.1,0.2-0.2,0.4-0.4,0.7l-1,2.1c-0.1,0.2-0.5,1.1-1.1,2.5c-0.1,0.3-0.2,0.5-0.3,0.6
			c-0.1,0.1-0.1,0.2-0.2,0.2c-0.2-0.1-0.4-0.4-0.7-1c-0.3-0.6-0.7-1.4-1.2-2.5c-0.2-0.5-0.5-1.2-1-2.3c0,1,0,2.4,0,4.1
			c0,1.9,0,3.2,0,3.8c0,1.5,0.1,3.1,0.2,4.9c-0.3,0.1-0.9,0.1-1.7,0.1h-0.8c-0.1,0-0.1-0.3-0.1-0.8c0-0.5,0-1.7,0-3.3
			c0-2.3,0-6.8,0.1-13.6c0.3-0.1,0.6-0.1,1-0.1s0.6,0,0.7,0c0.3,0,0.6,0,0.7,0h0c0.1,0.1,0.3,0.5,0.7,1.4c0.1,0.1,0.3,0.6,0.7,1.6
			c0.4,0.9,0.9,1.9,1.5,2.9c0.1,0,0.3-0.6,0.7-1.6c0.1-0.2,0.2-0.6,0.5-1.1c0.2-0.6,0.5-1.2,0.8-1.8c0.3-0.6,0.5-1.1,0.8-1.4
			c0.1,0,0.6,0,1.4,0c0.6,0,1.1-0.1,1.3-0.1c0,0.9-0.1,1.6-0.1,2.1c0,0.6,0,1.4,0.1,2.6l0,2.6C56,18.5,56,19.3,56,19.9z"/>
		<path class="st0" d="M69,25.8L69,25.8c0,1,0,1.7-0.1,2.2c-0.8,0-2.1,0-3.8,0c-1.3,0-2.4,0.1-3.1,0.1c-1.5,0-2.7,0-3.8-0.1
			c0-1.9,0-3.9-0.1-5.8c0-2.6-0.1-4.4-0.1-5.7c0-2.5,0.1-4.6,0.2-6.2c3.2-0.2,6.1-0.2,8.8-0.2c1.3,0,1.9,0,1.9,0.1
			c0,0.1,0,0.3,0,0.6c0,0.3,0,0.6,0,0.7l0,0.8v0.3c-1.2,0.1-2.3,0.1-3.3,0.1h-1.4h-0.8c-1,0-1.9,0-2.6,0.1l-0.1,0
			c0,0.4,0,1.2-0.1,2.4c0,0.9-0.1,1.4-0.1,1.6c0,0.5,0,0.9,0.1,1.2l0,0c0.8,0,1.7,0,2.6,0c0.8,0,1.4,0,1.9,0.1v0
			c0,0.3,0.1,0.6,0.1,1.1c0,0.2,0,0.3,0,0.5c0,0.2,0,0.4,0,0.6c-0.4,0-0.7,0.1-1,0.1c-0.2,0-0.5,0-0.8,0c-0.5,0-1,0-1.4,0
			c-0.8,0-1.2,0.1-1.3,0.1c-0.1,0.4-0.1,1-0.1,1.7c0,0.5,0,0.9,0,1.1c0,0.2,0,0.6,0,1c0,0.5,0,0.9,0,1.3l0,0c1.2,0,2.8,0,4.8,0.1
			c1.1,0,1.9,0.1,2.4,0.1L69,25.8z"/>
		<path class="st0" d="M76.8,9.9c1.7,7.5,3.1,13.6,4.1,18.2v0c-0.4,0.1-0.7,0.1-1.1,0.1c-0.2,0-0.4,0-0.6-0.1
			c-0.3,0-0.5-0.1-0.6-0.1h0c-0.1-0.3-0.3-0.9-0.5-1.8c-0.3-1-0.5-1.9-0.7-2.5c-0.8,0-1.8-0.1-3.1-0.1h-1.1c0,0-0.1,0.4-0.2,1.1
			c-0.2,0.9-0.3,1.7-0.4,2.3c-0.1,0.6-0.3,0.9-0.5,1c0,0-0.1,0-0.3,0c-0.1,0-0.3,0-0.7,0c-0.3,0-0.7,0-1.2,0h-0.3v0
			c0.1-0.1,0.1-0.6,0.2-1.4c0.4-2.7,0.9-5.5,1.5-8.3c0.6-2.8,1.3-5.6,2.3-8.4c0.1,0,0.2,0,0.4,0h0.6C75.3,10,76,10,76.8,9.9z
			 M74.4,21.7c1.1,0,2.1,0,2.9,0c-1-5.4-1.5-8.2-1.7-8.4c-0.2-0.1-0.3-0.1-0.4-0.1c-0.2,0-0.4,0.2-0.5,0.5c-0.1,0.3-0.3,1.1-0.6,2.3
			c-0.2,1.2-0.5,2.7-0.9,4.4l-0.2,1.3h0.5C73.9,21.7,74.2,21.7,74.4,21.7z"/>
		<path class="st0" d="M79.8,9.9c1,0,1.8,0,2.3,0l2.4,0c2.5,0,4.6,0.1,6.2,0.3c0,0.2,0,0.4,0,0.8c0,0.6,0,1.2-0.1,1.9
			c-0.4-0.1-0.9-0.1-1.6-0.1c-0.6,0-1.1,0.1-1.7,0.1h-0.7c0,0.1,0,0.2,0,0.3c0,0.1,0,1.3,0,3.5c0,0.5,0,1,0,1.3
			c0.1,4.6,0.1,7.9,0.2,10V28C86.5,28,86.1,28,85.4,28c-0.7,0-1.2,0-1.5,0.1c0-0.1,0-0.2,0-0.3c0-0.2,0-0.3,0-0.6v-1.6
			c0-0.3,0-1,0-1.9c0-1,0-1.8,0-2.5c0-2.5-0.1-5.2-0.2-8.3v-0.1c-0.4-0.1-1.3-0.2-2.9-0.2c-0.6,0-0.9,0-0.9,0
			c-0.1-0.1-0.1-0.4-0.1-1C79.8,11.1,79.8,10.5,79.8,9.9z"/>
		<path class="st0" d="M102.6,10.2L102.6,10.2c-0.5,1.6-1.1,3.2-1.8,4.8c-0.7,1.6-1.5,3.5-2.5,5.6c-0.8,1.8-1.5,3.2-2,4.3
			c-0.5,1.1-0.9,2.2-1.3,3.3c-0.1,0-0.1,0-0.3,0c-0.2,0-0.3,0-0.4,0c-0.3,0-0.5,0-0.7,0c-0.1,0-0.2,0-0.4,0c-0.2,0-0.3,0-0.5,0h-0.3
			h-0.1c0.6-1.5,1.6-4.1,3-7.7l0.2-0.6c-0.2-0.6-0.6-1.2-1-2.1c-0.2-0.4-0.4-0.9-0.6-1.4c-0.3-0.6-0.5-0.9-0.6-1.1
			c-0.5-1.1-1-2-1.3-2.8c-0.3-0.8-0.6-1.5-0.8-2.2c0.2,0,0.5,0,1-0.1c0.2,0,0.4-0.1,0.5-0.1c0.3,0,0.6,0,0.8,0.1
			c0.5,1.3,1.1,2.6,1.7,4c0.6,1.3,1.2,2.4,1.8,3.3c0.7-1.5,1.5-3.4,2.4-5.8l0.5-1.4c0.4-0.1,0.9-0.1,1.6-0.1
			C102,10.2,102.3,10.2,102.6,10.2z"/>
		<path class="st0" d="M30.4,34.1c1,0,1.8,0,2.3,0l2.4,0c2.5,0,4.6,0.1,6.2,0.3c0,0.2,0,0.4,0,0.8c0,0.6,0,1.2-0.1,1.9
			c-0.4-0.1-0.9-0.1-1.6-0.1C39,37,38.5,37,37.9,37h-0.7c0,0.1,0,0.2,0,0.3c0,0.1,0,1.3,0,3.5c0,0.5,0,1,0,1.3
			c0.1,4.6,0.1,7.9,0.2,10v0.1c-0.3,0.1-0.8,0.1-1.4,0.1c-0.7,0-1.2,0-1.5,0.1c0-0.1,0-0.2,0-0.3c0-0.2,0-0.3,0-0.6v-1.6
			c0-0.3,0-1,0-1.9c0-1,0-1.8,0-2.5c0-2.5-0.1-5.2-0.2-8.3v-0.1C33.9,37,33,37,31.4,36.9c-0.6,0-0.9,0-0.9,0c-0.1-0.1-0.1-0.4-0.1-1
			C30.4,35.4,30.4,34.8,30.4,34.1z"/>
		<path class="st0" d="M53.5,50.1L53.5,50.1c0,1,0,1.7-0.1,2.2c-0.8,0-2.1,0-3.8,0c-1.3,0-2.4,0.1-3.1,0.1c-1.5,0-2.7,0-3.8-0.1
			c0-1.9,0-3.9-0.1-5.8c0-2.6-0.1-4.4-0.1-5.7c0-2.5,0.1-4.6,0.2-6.2c3.2-0.2,6.1-0.2,8.8-0.2c1.3,0,1.9,0,1.9,0.1
			c0,0.1,0,0.3,0,0.6c0,0.3,0,0.6,0,0.7l0,0.8v0.3c-1.2,0.1-2.3,0.1-3.3,0.1h-1.4h-0.8c-1,0-1.9,0-2.6,0.1l-0.1,0
			c0,0.4,0,1.2-0.1,2.4c0,0.9-0.1,1.4-0.1,1.6c0,0.5,0,0.9,0.1,1.2l0,0c0.8,0,1.7,0,2.6,0c0.8,0,1.4,0,1.9,0.1v0
			c0,0.3,0.1,0.6,0.1,1.1c0,0.2,0,0.3,0,0.5c0,0.2,0,0.4,0,0.6c-0.4,0-0.7,0.1-1,0.1c-0.2,0-0.5,0-0.8,0c-0.5,0-1,0-1.4,0
			c-0.8,0-1.2,0.1-1.3,0.1c-0.1,0.4-0.1,1-0.1,1.7c0,0.5,0,0.9,0,1.1c0,0.2,0,0.6,0,1c0,0.5,0,0.9,0,1.3l0,0c1.2,0,2.8,0,4.8,0.1
			c1.1,0,1.9,0.1,2.4,0.1L53.5,50.1z"/>
		<path class="st0" d="M65.4,34.2L65.4,34.2c-0.3,1.1-0.6,2-0.9,2.7c-0.3,0.7-0.9,2.2-1.8,4.5l-0.7,1.8c1.4,3.6,2.4,6.6,3.1,9.1
			l-0.6,0l-0.8,0c-0.4,0-0.7,0-0.9-0.1c-0.3-0.8-0.8-2-1.4-3.7c-0.3-1-0.6-1.8-0.8-2.3c-0.2-0.5-0.4-0.9-0.6-1.3v0
			c-0.7,1.5-1.4,3-2,4.5c-0.4,1-0.8,2-1.2,2.8l-0.8,0l-0.6,0c-0.4,0-0.8,0-1-0.1c0.2-0.5,0.3-1.1,0.6-1.7c0.2-0.6,0.5-1.2,0.8-1.9
			c0.8-1.8,1.6-3.6,2.3-5.5c-0.3-0.9-0.8-2-1.4-3.3c-0.6-1.3-1.2-2.6-1.8-3.9L54,34.5l2-0.1c0.2,0,0.4,0,0.6,0c0.1,0,0.2,0,0.3,0.1
			c0.2,0.6,0.5,1.6,1.2,2.9c0.6,1.4,1.2,2.6,1.8,3.6c0.4-0.7,0.8-1.5,1.1-2.3c0.3-0.8,0.8-1.9,1.3-3.2l0.5-1.3v0
			C63.4,34.3,64.3,34.2,65.4,34.2L65.4,34.2z"/>
		<path class="st0" d="M65.6,34.1c1,0,1.8,0,2.3,0l2.4,0c2.5,0,4.6,0.1,6.2,0.3c0,0.2,0,0.4,0,0.8c0,0.6,0,1.2-0.1,1.9
			C76,37,75.5,36.9,74.8,37c-0.6,0-1.1,0.1-1.7,0.1h-0.7c0,0.1,0,0.2,0,0.3c0,0.1,0,1.3,0,3.5c0,0.5,0,1,0,1.3
			c0.1,4.6,0.1,7.9,0.2,10v0.1c-0.3,0.1-0.8,0.1-1.4,0.1c-0.7,0-1.2,0-1.5,0.1c0-0.1,0-0.2,0-0.3c0-0.2,0-0.3,0-0.6v-1.6
			c0-0.3,0-1,0-1.9c0-1,0-1.8,0-2.5c0-2.5-0.1-5.2-0.2-8.3v-0.1c-0.4-0.1-1.3-0.2-2.9-0.2c-0.6,0-0.9,0-0.9,0
			c-0.1-0.1-0.1-0.4-0.1-1C65.6,35.4,65.6,34.8,65.6,34.1z"/>
		<path class="st0" d="M86.4,35c0.8-0.1,1.3-0.1,1.6-0.1c0.4,0,0.7,0.1,1,0.2c0.1,1.8,0.1,3.5,0.1,5c0,3-0.1,5.8-0.4,8.4
			c-0.2,1.2-0.6,2.1-1.3,2.9c-0.7,0.8-1.7,1.2-2.9,1.3c-0.2,0-0.5,0-0.8,0c-1.6,0-2.9-0.4-4-1.1c-1.1-0.8-1.7-1.9-1.7-3.3
			c0-0.7,0-1.7,0-3c0-1.4,0-2.4,0-3.1c0-1.9,0.1-3.4,0.1-4.3l0-3.1l0,0h0l1.3,0c0.5,0,0.9,0,1.2,0.1c0,0.3,0,0.8,0,1.4l0,1
			c-0.1,1.7-0.1,3.1-0.1,4.3c0,1.8,0.1,3.3,0.2,4.4c0.1,1.1,0.4,2.2,0.8,3.1c0.3,0.4,0.7,0.7,1.2,0.9c0.3,0.1,0.6,0.1,0.9,0.1
			c0.4,0,0.9-0.1,1.2-0.3c0.4-0.2,0.7-0.5,0.9-0.8c0.4-0.9,0.7-2,0.8-3.4c0.1-1.3,0.2-2.9,0.2-4.8l0-4C86.3,36,86.3,35.4,86.4,35z"
			/>
		<path class="st0" d="M103.2,52.3l-1.3,0c-0.8,0-1.3,0-1.7,0c-0.3-0.4-0.7-0.9-1.1-1.4c-1-1.2-1.7-2.1-2.3-2.8
			c-0.6-0.7-1.2-1.3-1.8-1.9l-1.2-1c0,0.6-0.1,1.2-0.1,1.7v0.9c0,1.5,0.1,3,0.2,4.4c-0.4,0.1-1,0.2-1.7,0.2c-0.3,0-0.6,0-0.8,0
			c-0.2,0-0.4,0-0.5,0c0.1,0,0.1-1.5,0.1-4.6c0-2.8,0-5.6-0.1-8.4c-0.1-2.8-0.1-4.5-0.2-5.1c1.1-0.2,2-0.3,2.7-0.3
			c0.7-0.1,1.4-0.1,2.2-0.1c0.7,0,1.3,0,1.9,0.1c1,0.1,1.9,0.3,2.7,0.9c0.8,0.5,1.5,1.2,1.9,2c0.5,0.8,0.7,1.7,0.7,2.7
			c0,0.9-0.3,1.8-0.8,2.7c-0.3,0.6-0.6,1-1,1.3c-0.4,0.3-0.9,0.5-1.6,0.7s-1.8,0.2-3.1,0.2l1.6,1.8c0.9,1,1.7,1.8,2.3,2.6
			C101,49.6,101.9,50.7,103.2,52.3L103.2,52.3z M96.4,42.1c0.8,0,1.4,0,1.8-0.1c1.2-0.2,1.8-1.1,1.8-2.7c0-1-0.4-1.8-1.1-2.3
			c-0.7-0.5-1.7-0.8-2.9-0.8c-0.8,0-1.8,0.1-2.9,0.3c0.1,0.6,0.2,1.5,0.2,2.7l0,1.8c0,0.4,0,0.8,0.1,1h0
			C94.7,42.1,95.7,42.1,96.4,42.1z"/>
		<path class="st0" d="M115.1,50.1L115.1,50.1c0,1,0,1.7-0.1,2.2c-0.8,0-2.1,0-3.8,0c-1.3,0-2.4,0.1-3.1,0.1c-1.5,0-2.7,0-3.8-0.1
			c0-1.9,0-3.9-0.1-5.8c0-2.6-0.1-4.4-0.1-5.7c0-2.5,0.1-4.6,0.2-6.2c3.2-0.2,6.1-0.2,8.8-0.2c1.3,0,1.9,0,1.9,0.1
			c0,0.1,0,0.3,0,0.6c0,0.3,0,0.6,0,0.7l0,0.8v0.3c-1.2,0.1-2.3,0.1-3.3,0.1h-1.4h-0.8c-1,0-1.9,0-2.6,0.1l-0.1,0
			c0,0.4,0,1.2-0.1,2.4c0,0.9-0.1,1.4-0.1,1.6c0,0.5,0,0.9,0.1,1.2l0,0c0.8,0,1.7,0,2.6,0c0.8,0,1.4,0,1.9,0.1v0
			c0,0.3,0.1,0.6,0.1,1.1c0,0.2,0,0.3,0,0.5c0,0.2,0,0.4,0,0.6c-0.4,0-0.7,0.1-1,0.1c-0.2,0-0.5,0-0.8,0c-0.5,0-1,0-1.4,0
			c-0.8,0-1.2,0.1-1.3,0.1c-0.1,0.4-0.1,1-0.1,1.7c0,0.5,0,0.9,0,1.1c0,0.2,0,0.6,0,1c0,0.5,0,0.9,0,1.3l0,0c1.2,0,2.8,0,4.8,0.1
			c1.1,0,1.9,0.1,2.4,0.1L115.1,50.1z"/>
	</g>
	<g>
		<path class="st0" d="M145.7,17.7c-5.6-2.3-10.2,6.9-10.2,6.9h-12.1v2.8v3.9v2.8h12.1c0,0,4.6,9.2,10.2,6.9c4.8-2,4.3-7.5,0.5-11.6
			C150,25.2,150.5,19.7,145.7,17.7z"/>
	</g>
	<g>
		<path class="st0" d="M3.4,17.7c5.6-2.3,10.2,6.9,10.2,6.9h12.1v2.8v3.9v2.8H13.6c0,0-4.6,9.2-10.2,6.9c-4.8-2-4.3-7.5-0.5-11.6
			C-0.8,25.2-1.3,19.7,3.4,17.7z"/>
	</g>
	<g>
		<g>
			<path class="st0" d="M92.7,63.1c-4.5,0-6.9-0.1-9.1-0.2c-2.2-0.1-4.5-0.2-9-0.2c-4.5,0-6.8,0-9,0c-2.3,0-4.5,0-9.1,0
				c-4.6,0-6.9-0.1-9.1-0.2c-2.2-0.1-4.5-0.2-9-0.2c-7.7,0-14.1-6.4-14.1-14.2c0-4.2,0.1-6.4,0.2-8.5c0.1-2,0.2-4.1,0.2-8.3
				c0-4.2,0.1-6.4,0.2-8.4c0.1-2,0.2-4.2,0.2-8.3c0-8.1,5.8-14.5,13.2-14.5c4.6,0,6.9,0.3,9.2,0.5c2.3,0.2,4.4,0.5,8.9,0.5
				c4.5,0,6.8,0,9.1,0.1c2.2,0,4.5,0.1,9,0.1c4.4,0,6.6-0.3,8.8-0.6C85.7,0.3,88.1,0,92.7,0c4.5,0,6.8,0,9.1,0c2.3,0,4.5,0,9,0
				c7.6,0,13.8,6.6,13.8,14.6c0,4.2,0,6.3,0.1,8.4c0,2.1,0.1,4.2,0.1,8.4c0,4.2,0.1,6.3,0.1,8.3c0.1,2.1,0.1,4.2,0.1,8.4
				c0,7.6-6.2,13.5-14.2,13.5c-4.4,0-6.6,0.3-8.8,0.7C99.7,62.7,97.3,63.1,92.7,63.1z M74.6,60c4.5,0,6.9,0.1,9.1,0.2
				c2.2,0.1,4.5,0.2,9,0.2c4.4,0,6.6-0.3,8.8-0.7c2.3-0.4,4.6-0.7,9.3-0.7c6.4,0,11.4-4.7,11.4-10.7c0-4.2-0.1-6.3-0.1-8.3
				c-0.1-2.1-0.1-4.2-0.1-8.4c0-4.2,0-6.3-0.1-8.4c0-2.1-0.1-4.2-0.1-8.4c0-6.5-4.9-11.8-11-11.8c-4.5,0-6.8,0-9.1,0
				c-2.3,0-4.5,0-9,0c-4.4,0-6.6,0.3-8.8,0.6c-2.3,0.3-4.6,0.7-9.2,0.7c-4.5,0-6.8,0-9.1-0.1c-2.2,0-4.5-0.1-9-0.1
				c-4.6,0-6.9-0.3-9.2-0.5C45,3.2,42.9,3,38.4,3C32.5,3,28,8,28,14.7c0,4.2-0.1,6.4-0.2,8.4c-0.1,2-0.2,4.2-0.2,8.3
				c0,4.2-0.1,6.4-0.2,8.5c-0.1,2-0.2,4.2-0.2,8.3c0,6.3,5.1,11.4,11.3,11.4c4.6,0,6.9,0.1,9.1,0.2c2.2,0.1,4.5,0.2,9,0.2
				c4.5,0,6.8,0,9,0C67.8,60,70.1,60,74.6,60z"/>
		</g>
	</g>
</g>
</svg>
