<?xml version="1.0" encoding="utf-8"?>
<!-- Generator: Adobe Illustrator 24.0.1, SVG Export Plug-In . SVG Version: 6.00 Build 0)  -->
<svg version="1.1" id="Layer_1" xmlns="http://www.w3.org/2000/svg" xmlns:xlink="http://www.w3.org/1999/xlink" x="0px" y="0px"
	 viewBox="0 0 104 67" style="enable-background:new 0 0 104 67;" xml:space="preserve">
<style type="text/css">
	.st0{fill:#FFFFFF;}
</style>
<g>
	<path class="st0" d="M54.6,0.4c0,0.2-0.1,0.4-0.4,0.5C54,1,53.7,1.1,53.5,1.2c-0.4,0.2-0.7,1.4-1,3.6c-0.2,1.7-0.4,3.1-0.4,4.2
		L52,21.3c0,1.1-0.3,2.2-0.7,3.5c-0.6,1.6-1.3,2.4-2.1,2.4c-1.3,0-2.5-1.2-3.7-3.7c-0.5-1-1.1-2.8-1.9-5.5c-0.8-2.7-2-6.7-3.6-12.1
		c-0.3,0.1-0.5,0.3-0.5,0.8c-0.1,0.7-0.3,2.6-0.6,5.6c-0.3,2.3-0.4,4.2-0.4,5.6c0,4.3,0.3,6.8,0.8,7.5c0.3,0.4,0.4,0.7,0.4,0.7
		c0,0.3-0.2,0.6-0.6,0.8c-0.4,0.3-0.7,0.4-1,0.4c-1.1,0-1.6-1.8-1.6-5.3c0-0.5,0-1.2-0.1-2c0-0.9-0.1-1.6-0.1-2.1
		c0-1.2,0.2-2.9,0.5-5.3c0.3-2.4,0.5-4.1,0.5-5.3V2.3c0-0.1,0-0.1-0.1-0.3c0-0.1-0.1-0.2-0.1-0.3c0-0.7,0.7-1,2.1-1
		c1.1,0,1.9,0.3,2.3,1c0.1,0.2,0.2,0.8,0.3,1.8c0.1,0.6,0.2,1.3,0.2,2c0.3,2.1,1.3,5.7,2.9,10.6c1.8,5.7,3.2,8.5,4,8.5
		c0.7,0,1.1-1.4,1-4.3L50,8.2c0-1.4,0.3-3,0.8-4.8C51.4,1.1,52.3,0,53.3,0C53.7,0,54.2,0.1,54.6,0.4z"/>
	<path class="st0" d="M67.5,19.5c0,2.3-0.5,4.3-1.5,6c-1.2,2.1-2.9,3.1-5,3.1c-2.2,0-3.8-0.8-4.9-2.5c-0.9-1.4-1.3-3.2-1.3-5.5
		c0-2.3,0.5-4.5,1.5-6.7c1.3-2.7,2.9-4.1,4.9-4.1c0.5,0,1.2,0.3,2.2,0.9C66.1,12.4,67.5,15.4,67.5,19.5z M65.6,19.5
		c0-1.7-0.2-3.3-0.7-4.6C64.2,13,63.2,12,61.8,12c-1.6,0-2.9,1.1-3.8,3.2c-0.7,1.6-1,3.4-1,5.3c0,1.7,0.2,3.1,0.7,4.3
		c0.7,1.6,1.8,2.4,3.3,2.4c1.6,0,2.8-0.9,3.7-2.7C65.3,22.9,65.6,21.3,65.6,19.5z"/>
	<path class="st0" d="M12.5,58.7c0,0.4-0.3,0.6-0.9,0.6c-0.6,0-1-0.3-1.2-0.8c0-0.1,0-0.6,0-1.6c0-0.3,0-0.5-0.1-0.6
		c-1.5,1.1-3.1,1.6-4.9,1.6c-1.2,0-2.4-0.3-3.5-1C0.6,56.2,0,55.2,0,54.1c0-1.1,0.8-2.2,2.3-3.2c1.4-1,2.7-1.4,3.9-1.4h4
		c0.2-0.2,0.2-0.4,0.2-0.8c0-1.8-0.1-3.1-0.4-4.1c-0.5-1.5-1.4-2.3-2.9-2.3c-1,0-2,0.6-2.8,1.9c-0.8,1.2-1.2,2.3-1.2,3.4
		c0,0.1,0,0.1,0,0.2c0,0.1,0,0.2,0,0.2c0,0.2-0.1,0.3-0.3,0.3c-0.3,0-0.6-0.2-0.9-0.5S1.4,47.2,1.4,47c0-0.7,0.2-1.7,0.7-2.8
		c0.5-1.1,1-2,1.5-2.6c0.7-0.7,1.5-1.1,2.5-1.1c1.5,0,2.9,0.5,4.2,1.4c1.4,1,2.1,2.3,2.1,3.8L12.5,58.7z M10.4,52.3
		c0-1.1-0.8-1.6-2.5-1.6c-1.3,0-2.5,0.2-3.5,0.7c-1.3,0.6-1.9,1.5-1.9,2.7c0,0.7,0.3,1.3,1,1.7c0.6,0.3,1.2,0.5,2,0.5
		c1.2,0,2.2-0.4,3.3-1.1C9.9,54.4,10.4,53.5,10.4,52.3z"/>
	<path class="st0" d="M18.3,57.2c0,0.7-0.4,1-1.1,1c-1.2,0-1.8-2.4-1.7-7.3l0.1-18c0-0.3,0-0.7-0.1-1.3c-0.1-0.5-0.1-1-0.1-1.2
		c0.5-0.4,0.9-0.6,1.3-0.6c0.4,0,0.7,0.1,1.1,0.4c0.4,0.3,0.6,0.6,0.6,1c0,0.3-0.1,0.6-0.2,1c-0.2,0.5-0.3,0.9-0.3,1
		c-0.3,1.8-0.5,4.4-0.5,7.6c0,5.3,0,7.8,0,7.6c0.1,3.3,0.3,5.8,0.6,7.4c0,0.1,0.1,0.3,0.2,0.5C18.3,56.8,18.3,57,18.3,57.2z"/>
	<path class="st0" d="M23.6,57.2c0,0.7-0.4,1-1.1,1c-1.2,0-1.8-2.4-1.7-7.3l0.1-18c0-0.3,0-0.7-0.1-1.3c-0.1-0.5-0.1-1-0.1-1.2
		c0.5-0.4,0.9-0.6,1.3-0.6c0.4,0,0.7,0.1,1.1,0.4c0.4,0.3,0.6,0.6,0.6,1c0,0.3-0.1,0.6-0.2,1c-0.2,0.5-0.3,0.9-0.3,1
		c-0.3,1.8-0.5,4.4-0.5,7.6c0,5.3,0,7.8,0,7.6c0.1,3.3,0.3,5.8,0.6,7.4c0,0.1,0.1,0.3,0.2,0.5C23.6,56.8,23.6,57,23.6,57.2z"/>
	<path class="st0" d="M37.4,53.6c0,1.2-0.8,2.2-2.4,3.2c-1.4,0.9-2.8,1.3-4,1.3c-3.6,0-5.4-2.3-5.4-6.8c0-2,0.4-4.2,1.1-6.5
		c1-3,2.2-4.5,3.7-4.5c1.3,0,2.7,0.7,4.2,1.9c1.5,1.3,2.3,2.6,2.3,3.9c0,1.7-0.7,3.1-2,4.3c-1.3,1.2-2.9,1.8-4.5,1.8
		c-0.2,0-0.5-0.1-1-0.4c-0.5-0.3-0.9-0.4-1.1-0.4c-0.3,0-0.5,0.1-0.5,0.3c0,3.1,1,4.6,3.1,4.6c1,0,2-0.3,2.9-1
		c0.5-0.4,1.1-1,1.8-1.9c0.5-0.7,0.8-1,1-1C37.1,52.5,37.4,52.8,37.4,53.6z M34.6,46.2c0-0.9-0.3-1.8-0.8-2.6
		c-0.5-0.8-1.2-1.2-2.1-1.2c-1.1,0-1.9,0.7-2.6,2c-0.6,1.1-0.8,2.3-0.8,3.5c0,0.8,0.2,1.4,0.7,1.9c0.5,0.5,1.1,0.8,1.9,0.8
		c1.1,0,2-0.5,2.7-1.4C34.3,48.3,34.6,47.3,34.6,46.2z"/>
	<path class="st0" d="M48.1,43.3c0,0.1,0,0.3,0,0.7c-0.3,0.5-0.7,0.8-1,0.8c-0.2,0-0.4-0.1-0.6-0.4c-0.1-1.7-0.8-2.5-2.1-2.5
		c-0.9,0-1.7,1.6-2.5,4.7c-0.3,1.2-0.5,2.7-0.5,4.6c0,2.5,0.1,4,0.2,4.5c0,0.1,0.1,0.2,0.2,0.5c0.1,0.3,0.2,0.4,0.2,0.6
		c0,0.6-0.4,0.9-1.2,0.9c-0.9,0-1.4-0.5-1.4-1.4c0-0.1,0-0.3,0.1-0.6c0.1-0.3,0.1-0.4,0.1-0.6c0-1.5-0.1-3.7-0.2-6.6
		c-0.1-2.9-0.2-5.2-0.2-6.6c0-0.5,0.1-0.9,0.3-1c0.2-0.1,0.5-0.2,1.1-0.2c0.7,0,1.1,0.2,1.2,0.7c0,0.5,0.1,1.1,0.1,1.6
		c0.7-1.1,1.1-1.7,1.2-1.8c0.6-0.7,1.2-1,1.8-1c0.5,0,1,0.1,1.4,0.4c0.3,0.2,0.6,0.6,1.1,1.2C47.9,42.5,48.1,43,48.1,43.3z"/>
	<path class="st0" d="M61.3,45.5c0,0.2,0,0.4,0,0.7c-0.6,2.7-0.8,4.8-0.8,6.5c0,0.8,0,2.1,0.1,3.8c0.1,1.7,0.1,3,0.1,3.9
		c0,1.7-0.1,2.9-0.4,3.6c-0.3,0.9-0.9,1.6-1.8,2.2c-0.9,0.6-1.8,0.9-2.8,0.9c-1.1,0-2.4-0.2-3.9-0.7c-1.9-0.6-2.8-1.3-2.8-2.1
		c0-0.7,0.3-1.1,0.8-1.1c0.2,0,0.5,0.2,0.6,0.5c0.3,0.5,0.4,0.7,0.5,0.8c0.2,0.2,0.8,0.4,1.6,0.6c0.8,0.2,1.4,0.3,1.8,0.3
		c1.5,0,2.6-0.6,3.4-1.8c0.7-1,1-2.3,1-3.9c0-1.7-0.1-3.1-0.4-4.1C57,57.2,55.5,58,53.7,58c-0.5,0-1.2-0.2-1.9-0.5
		c-0.7-0.4-1.3-0.8-1.6-1.2c-0.7-0.9-1.1-2.2-1.1-4.1c0-2.3,0.4-4.7,1.2-7.4c1.1-3.4,2.5-5.1,4.2-5.1c1.4,0,2.9,1.3,4.4,3.8
		c0.2,0.3,0.4,0.7,0.8,1.2C60.1,44.8,60.6,45.1,61.3,45.5z M58.9,47.7c0-0.6-0.2-1-0.6-1.4c-0.1-1.1-0.4-2.1-0.8-2.9
		c-0.6-1-1.4-1.5-2.5-1.5c-0.7,0-1.4,0.8-2.2,2.5c-0.5,1.2-0.9,2.4-1.1,3.5c-0.3,1.6-0.4,3-0.4,4.1c0,3.3,1,4.9,2.9,4.9
		c1.4,0,2.7-1.2,3.6-3.6C58.5,51.3,58.9,49.5,58.9,47.7z"/>
	<path class="st0" d="M75.1,53.6c0,1.2-0.8,2.2-2.4,3.2c-1.4,0.9-2.8,1.3-4,1.3c-3.6,0-5.4-2.3-5.4-6.8c0-2,0.4-4.2,1.1-6.5
		c1-3,2.2-4.5,3.7-4.5c1.3,0,2.7,0.7,4.2,1.9c1.5,1.3,2.3,2.6,2.3,3.9c0,1.7-0.7,3.1-2,4.3c-1.3,1.2-2.9,1.8-4.5,1.8
		c-0.2,0-0.5-0.1-1-0.4c-0.5-0.3-0.9-0.4-1.1-0.4c-0.3,0-0.5,0.1-0.5,0.3c0,3.1,1,4.6,3.1,4.6c1,0,2-0.3,2.9-1
		c0.5-0.4,1.1-1,1.8-1.9c0.5-0.7,0.8-1,1-1C74.8,52.5,75.1,52.8,75.1,53.6z M72.3,46.2c0-0.9-0.3-1.8-0.8-2.6
		c-0.5-0.8-1.2-1.2-2.1-1.2c-1.1,0-1.9,0.7-2.6,2c-0.6,1.1-0.8,2.3-0.8,3.5c0,0.8,0.2,1.4,0.7,1.9c0.5,0.5,1.1,0.8,1.9,0.8
		c1.1,0,2-0.5,2.7-1.4C72,48.3,72.3,47.3,72.3,46.2z"/>
	<path class="st0" d="M89.6,57.8c-0.2,0.3-0.4,0.4-0.6,0.4c-0.3,0-0.7-0.2-1.4-0.6v-0.3c0-0.2,0-0.6,0-1.1c0-0.5,0-0.8,0-1
		c0-8.9-1.1-13.3-3.3-13.3c-0.7,0-1.4,0.5-2.2,1.5c-2,2.5-3,5.7-3,9.5c0,0.5,0.1,1.3,0.2,2.2c0.1,1,0.2,1.7,0.2,2.2
		c0,0.4-0.3,0.6-0.8,0.6c-1,0-1.6-0.8-1.6-2.5v-9.1c0-0.2,0-0.6,0-1c0-0.5,0-0.8,0-1c0-0.3,0-0.9-0.1-1.5c-0.1-0.7-0.1-1.2-0.1-1.5
		c0-0.2,0.2-0.5,0.5-0.7c0.3-0.3,0.6-0.4,0.8-0.4c0.3,0,0.7,0.2,1,0.6c-0.1,1.7-0.1,2.8-0.1,3.1c0,0.4,0,0.8,0,1.2
		c0.2-0.1,0.6-0.5,1-1.3c0.5-1,0.9-1.7,1.3-2.1c0.6-0.7,1.4-1.1,2.2-1.1c0.3,0,0.8,0.1,1.4,0.4c1.4,0.5,2.5,1.4,3.1,2.7
		c1,2.1,1.6,4.9,1.6,8.4V57.8z"/>
	<path class="st0" d="M104,55.2c0,0.9-0.7,1.7-2.1,2.4c-1.2,0.5-2.3,0.8-3.4,0.8c-0.7,0-1.6-0.2-2.5-0.5c-0.5-0.2-1.3-0.8-2.5-1.7
		c-1.2-1-1.8-1.7-1.8-2.1c0-0.8,0.5-1.2,1.5-1.1h0.2c0.1,0.8,0.9,1.7,2.6,2.6c1.5,0.9,2.7,1.3,3.6,1.3c1.2,0,1.8-0.4,1.8-1.2
		c0-0.5-0.7-1.2-2.2-2c-2-1.2-3.3-2.1-4.1-2.8c-1.5-1.4-2.2-3.1-2.2-4.9c0-1.4,0.4-2.7,1.1-4c0.8-1.5,1.9-2.3,3.1-2.3
		c0.9,0,2,0.4,3.3,1.3c1.3,0.8,2,1.7,2.3,2.6c0.2,0.7,0.3,1.6,0.3,2.5c0,1-0.2,2.2-0.6,3.4c-0.2,0.2-0.5,0.3-0.8,0.3
		c-0.2,0-0.5-0.1-0.9-0.2c-0.4-0.1-0.6-0.3-0.6-0.5c0,0.1,0.1-0.2,0.4-0.9c0.2-0.5,0.3-1.3,0.3-2.5c0-2.9-0.9-4.3-2.7-4.3
		c-0.9,0-1.7,0.6-2.3,1.9c-0.5,1-0.7,2.1-0.7,3.1c0,1.3,0.8,2.6,2.3,3.8c0.5,0.4,1.9,1.4,4.2,2.8C103.2,53.9,104,54.7,104,55.2z"/>
</g>
</svg>
